.
 
http://www.scenetime.com    -   SceneTime [ We been having it ] !!!


How come you press harder on a remote control when you know the battery is dead? so you better seed to get speed ;)

        Seed back for speed


...................................NFO:.................................................   :::'###::::'##::: ##::::'###::::'########:::'######::'##::::'##:'##:::'##:
   ::'## ##::: ###:: ##:::'## ##::: ##.... ##:'##... ##: ##:::: ##:. ##:'##::
   :'##:. ##:: ####: ##::'##:. ##:: ##:::: ##: ##:::..:: ##:::: ##::. ####:::
   '##:::. ##: ## ## ##:'##:::. ##: ########:: ##::::::: #########:::. ##::::
    #########: ##. ####: #########: ##.. ##::: ##::::::: ##.... ##:::: ##::::
    ##.... ##: ##:. ###: ##.... ##: ##::. ##:: ##::: ##: ##:::: ##:::: ##::::
    ##:::: ##: ##::. ##: ##:::: ##: ##:::. ##:. ######:: ##:::: ##:::: ##::::
   ..:::::..::..::::..::..:::::..::..:::::..:::......:::..:::::..:::::..:::::

 
 
                                                                             
  Info ...                                                                   
  Title    : The Romantics (2010) BRRip Xvid AC3-Anarchy                     
  Genre    : Comedy | Drama | Romance                                        
  Language : English                                                         
  Subs     : None                                                            
  Size     : 912 MiB                                                         
  Source   : BluRay.x264-GBM(Thanks)                                         
  Ripper   : fasamoo                                                         
 


   links ....
 > RT       : http://www.rottentomatoes.com/m/the-romantics/<
 > imdb     : http://www.imdb.com/title/tt1403988/<
 > youtube  :

 
                                                                             
  Plot ...                                                                   
  Seven close friends reunite for the wedding of two of their friends.       
  Problems arise because the bride and the maid of honor have had a long     
  rivalry over the groom.                                                    
                                                                             
 
 
 
                                                                             
  Video/Audio ...                                                            
  Video                                                                                                     
  ID                               : 0                                                                      
  Format                           : MPEG-4 Visual                                                          
  Format profile                   : Advanced Simple@L5                                                     
  Format settings, BVOP            : 2                                                                      
  Format settings, QPel            : No                                                                     
  Format settings, GMC             : No warppoints                                                          
  Format settings, Matrix          : Default (H.263)                                                        
  Muxing mode                      : Packed bitstream                                                       
  Codec ID                         : XVID                                                                   
  Codec ID/Hint                    : XviD                                                                   
  Duration                         : 1h 36mn                                                                
  Bit rate                         : 863 Kbps                                                               
  Width                            : 720 pixels                                                             
  Height                           : 416 pixels                                                             
  Display aspect ratio             : 16:9                                                                   
  Frame rate                       : 24.000 fps                                                             
  Color space                      : YUV                                                                    
  Chroma subsampling               : 4:2:0                                                                  
  Bit depth                        : 8 bits                                                                 
  Scan type                        : Progressive                                                            
  Compression mode                 : Lossy                                                                  
  Bits/(Pixel*Frame)               : 0.120                                                                  
  Stream size                      : 596 MiB (65%)                                                          
  Writing library                  : XviD 1.1.0 (UTC 2005-11-22)                                            
                                                                                                            
  Audio                                                                                                     
  ID                               : 1                                                                      
  Format                           : AC-3                                                                   
  Format/Info                      : Audio Coding 3                                                         
  Mode extension                   : CM (complete main)                                                     
  Codec ID                         : 2000                                                                   
  Duration                         : 1h 36mn                                                                
  Bit rate mode                    : Constant                                                               
  Bit rate                         : 448 Kbps                                                               
  Channel(s)                       : 6 channels                                                             
  Channel positions                : Front: L C R, Side: L R, LFE                                           
  Sampling rate                    : 48.0 KHz                                                               
  Bit depth                        : 16 bits                                                                
  Compression mode                 : Lossy                                                                  
  Stream size                      : 309 MiB (34%)                                                          
  Alignment                        : Split accross interleaves                                              
  Interleave, duration             : 42 ms (1.00 video frame)                                               
  Interleave, preload duration     : 500 ms                                                                 
                                                                             
 
              

                             Greets to all P2P groups